<?xml version="1.0" encoding="utf-8"?>
<!-- Generator: Adobe Illustrator 18.1.1, SVG Export Plug-In . SVG Version: 6.00 Build 0)  -->
<svg version="1.1" id="Capa_1" xmlns="http://www.w3.org/2000/svg" xmlns:xlink="http://www.w3.org/1999/xlink" x="0px" y="0px"
	 viewBox="-289 411.9 16 18" enable-background="new -289 411.9 16 18" xml:space="preserve">
<g>
	<path fill="#E74D4D" d="M-274.8,418.6h-0.4v-1.9c0,0,0,0,0,0c0-0.1,0-0.1-0.1-0.2l-3.1-3.5c0,0,0,0,0,0c0,0,0,0-0.1-0.1
		c0,0,0,0,0,0c0,0,0,0-0.1,0c0,0,0,0,0,0c0,0,0,0-0.1,0h-7.6c-0.3,0-0.6,0.3-0.6,0.6v5.1h-0.4c-0.5,0-0.9,0.4-0.9,0.9v4.7
		c0,0.5,0.4,0.9,0.9,0.9h0.4v3.2c0,0.3,0.3,0.6,0.6,0.6h10.4c0.3,0,0.6-0.3,0.6-0.6v-3.2h0.4c0.5,0,0.9-0.4,0.9-0.9v-4.7
		C-273.9,419-274.3,418.6-274.8,418.6z M-286.2,413.5h7.3v3.2c0,0.2,0.1,0.3,0.3,0.3h2.8v1.6h-10.4V413.5z M-281.5,422
		c-0.8-0.3-1.3-0.7-1.3-1.4c0-0.8,0.7-1.4,1.8-1.4c0.5,0,0.9,0.1,1.2,0.2l-0.2,0.9c-0.2-0.1-0.5-0.2-1-0.2c-0.5,0-0.7,0.2-0.7,0.5
		c0,0.3,0.3,0.4,0.9,0.7c0.8,0.3,1.2,0.7,1.2,1.4c0,0.8-0.6,1.5-1.9,1.5c-0.5,0-1.1-0.1-1.3-0.3l0.2-0.9c0.3,0.1,0.7,0.3,1.2,0.3
		c0.5,0,0.7-0.2,0.7-0.5C-280.7,422.4-280.9,422.2-281.5,422z M-287,421.7c0-1.6,1.1-2.5,2.6-2.5c0.5,0,1,0.1,1.2,0.2l-0.2,0.8
		c-0.2-0.1-0.5-0.2-0.9-0.2c-0.8,0-1.5,0.5-1.5,1.5c0,0.9,0.6,1.5,1.5,1.5c0.3,0,0.7-0.1,0.9-0.2l0.2,0.8c-0.2,0.1-0.6,0.2-1.2,0.2
		C-286.1,424.1-287,423.1-287,421.7z M-275.8,428.1h-10.4v-3h10.4V428.1z M-276.5,424h-1.2l-1.5-4.7h1.2l0.6,2
		c0.2,0.6,0.3,1.1,0.4,1.7h0c0.1-0.6,0.3-1.1,0.4-1.7l0.6-2h1.1L-276.5,424z"/>
</g>
</svg>
