<?xml version="1.0" encoding="utf-8"?>
<!-- Generator: Adobe Illustrator 16.0.0, SVG Export Plug-In . SVG Version: 6.00 Build 0)  -->
<!DOCTYPE svg PUBLIC "-//W3C//DTD SVG 1.1//EN" "http://www.w3.org/Graphics/SVG/1.1/DTD/svg11.dtd">
<svg version="1.1" id="Capa_1" xmlns="http://www.w3.org/2000/svg" xmlns:xlink="http://www.w3.org/1999/xlink" x="0px" y="0px"
	 width="16px" height="18px" viewBox="0 0 16 18" enable-background="new 0 0 16 18" xml:space="preserve">
<g display="none">
	<path display="inline" fill="#FF0000" d="M14.188,6.723h-0.384V4.87c0-0.012-0.002-0.023-0.004-0.035
		c0-0.074-0.023-0.146-0.074-0.203l-3.086-3.524c0-0.001-0.001-0.001-0.002-0.002C10.62,1.084,10.6,1.067,10.576,1.053
		c-0.007-0.004-0.014-0.008-0.021-0.012c-0.02-0.011-0.04-0.02-0.062-0.026c-0.006-0.001-0.012-0.004-0.018-0.005
		C10.453,1.003,10.43,1,10.405,1H2.824C2.478,1,2.196,1.282,2.196,1.627v5.096H1.812c-0.495,0-0.897,0.401-0.897,0.896v4.664
		c0,0.495,0.402,0.896,0.897,0.896h0.384v3.193C2.196,16.719,2.478,17,2.824,17h10.352c0.347,0,0.628-0.281,0.628-0.627V13.18h0.384
		c0.496,0,0.897-0.401,0.897-0.896V7.62C15.085,7.125,14.684,6.723,14.188,6.723z M2.824,1.627h7.268v3.21
		c0,0.174,0.141,0.314,0.313,0.314h2.771v1.572H2.824V1.627z M9.863,11.293v0.91H6.87V7.411h1.088v3.882H9.863z M2.157,12.203
		l1.387-2.424L2.207,7.411h1.244L3.87,8.286c0.143,0.291,0.249,0.526,0.363,0.796h0.014c0.114-0.306,0.206-0.519,0.327-0.796
		l0.405-0.875h1.237L4.866,9.75l1.422,2.453H5.036l-0.434-0.867c-0.177-0.334-0.292-0.583-0.426-0.86H4.162
		c-0.1,0.277-0.221,0.526-0.37,0.86l-0.398,0.867H2.157L2.157,12.203z M13.176,16.203H2.824V13.18h10.352V16.203z M11.676,12.274
		c-0.547,0-1.087-0.142-1.357-0.292l0.221-0.896c0.291,0.149,0.739,0.299,1.201,0.299c0.498,0,0.762-0.206,0.762-0.519
		c0-0.299-0.229-0.47-0.804-0.676c-0.796-0.277-1.315-0.718-1.315-1.416c0-0.817,0.683-1.443,1.813-1.443
		c0.54,0,0.938,0.114,1.223,0.242l-0.241,0.875c-0.192-0.093-0.534-0.228-1.003-0.228c-0.47,0-0.696,0.213-0.696,0.462
		c0,0.306,0.27,0.441,0.889,0.676c0.846,0.313,1.244,0.754,1.244,1.43C13.61,11.592,12.992,12.274,11.676,12.274z"/>
</g>
<g>
	<rect x="2.824" y="13.18" display="none" fill="none" width="10.352" height="3.023"/>
	<path display="none" fill="none" d="M13.176,5.151h-2.771c-0.173,0-0.313-0.14-0.313-0.314v-3.21H2.824v5.096h10.352V5.151z"/>
	<path fill="#FF0000" d="M14.188,6.723h-0.384V4.869c0-0.012-0.002-0.023-0.004-0.035c0-0.074-0.023-0.146-0.074-0.203l-3.086-3.524
		c0-0.001-0.001-0.001-0.002-0.002C10.62,1.084,10.6,1.067,10.576,1.052c-0.007-0.004-0.014-0.008-0.021-0.012
		c-0.02-0.011-0.04-0.02-0.062-0.026c-0.006-0.001-0.012-0.004-0.018-0.005C10.453,1.003,10.43,1,10.405,1H2.824
		C2.478,1,2.196,1.281,2.196,1.627v5.096H1.812c-0.494,0-0.896,0.401-0.896,0.896v4.664c0,0.494,0.402,0.896,0.896,0.896h0.385
		v3.193C2.196,16.719,2.478,17,2.824,17h10.352c0.347,0,0.628-0.281,0.628-0.627V13.18h0.384c0.496,0,0.897-0.402,0.897-0.896V7.62
		C15.085,7.124,14.684,6.723,14.188,6.723z M2.824,1.627h7.268v3.21c0,0.174,0.141,0.314,0.313,0.314h2.771v1.572H2.824V1.627z
		 M6.946,12.328H6.109L4.865,8.293L4.84,8.318v4.01H3.901V7.633h1.649l0.989,3.425h0.025l1.065-3.425h1.573v4.695H8.266v-4.01V8.293
		L6.946,12.328z M2.125,12.328V7.633H3.14v4.695H2.125z M13.176,16.203H2.824V13.18h10.352V16.203z M12.273,11.693
		c0.254,0,0.55-0.033,0.889-0.102c-0.018,0.018,0,0.018,0.051,0v-0.99h-0.914V9.815h1.903v2.36c-0.339,0.102-0.685,0.152-1.04,0.152
		c-0.271,0.033-0.626,0.051-1.066,0.051c-1.438-0.086-2.174-0.881-2.207-2.387c0.033-1.538,0.77-2.359,2.207-2.46
		c1.473,0,2.199,0.507,2.183,1.522h-1.065c0-0.523-0.313-0.786-0.939-0.786c-0.862,0.017-1.303,0.593-1.319,1.725
		C10.971,11.109,11.411,11.676,12.273,11.693z"/>
	<rect x="2.125" y="7.633" display="none" fill="#FFFFFF" width="1.015" height="4.695"/>
	<polygon display="none" fill="#FFFFFF" points="8.266,12.328 9.204,12.328 9.204,7.633 7.631,7.633 6.565,11.059 6.54,11.059 
		5.551,7.633 3.901,7.633 3.901,12.328 4.84,12.328 4.84,8.318 4.865,8.293 6.109,12.328 6.946,12.328 8.266,8.293 8.266,8.318 	"/>
	<path display="none" fill="#FFFFFF" d="M12.273,8.268c0.626,0,0.939,0.263,0.939,0.786h1.065c0.017-1.015-0.71-1.522-2.183-1.522
		c-1.438,0.102-2.174,0.922-2.207,2.46c0.033,1.506,0.77,2.301,2.207,2.387c0.44,0,0.795-0.018,1.066-0.051
		c0.355,0,0.701-0.051,1.04-0.152v-2.36h-1.903v0.786h0.914v0.99c-0.051,0.018-0.068,0.018-0.051,0
		c-0.339,0.068-0.635,0.102-0.889,0.102c-0.862-0.018-1.303-0.584-1.319-1.701C10.971,8.86,11.411,8.284,12.273,8.268z"/>
</g>
</svg>
