<?xml version="1.0" encoding="utf-8"?>
<!-- Generator: Adobe Illustrator 18.1.1, SVG Export Plug-In . SVG Version: 6.00 Build 0)  -->
<svg version="1.1" id="图层_1" xmlns="http://www.w3.org/2000/svg" xmlns:xlink="http://www.w3.org/1999/xlink" x="0px" y="0px"
	 viewBox="-289 411.9 16 18" enable-background="new -289 411.9 16 18" xml:space="preserve">
<title>TXT Copy@1x</title>
<desc>Created with Sketch.</desc>
<g id="_x32_">
	<g id="TXT-Copy">
		<path id="Combined-Shape" fill="#E74D4D" d="M-278.9,412.9h-7.6l0,0c-0.3,0-0.5,0.2-0.5,0.5l0,0v5.5h0.7v-5.3h7.3v2.9
			c0,0.3,0.2,0.5,0.5,0.5l0,0h2.8v2h0.7v-2.2l0,0c0,0,0-0.1-0.1-0.1l0,0l-3.6-3.6l0,0C-278.7,412.9-278.7,412.9-278.9,412.9
			C-278.8,412.9-278.9,412.9-278.9,412.9z M-286.3,424.9h-0.7v3.5c0,0.3,0.2,0.5,0.5,0.5l0,0h11c0.3,0,0.5-0.2,0.5-0.5v-3.5h-0.7
			v3.4h-10.6V424.9z"/>
		<path id="Combined-Shape_1_" fill="#E74D4D" d="M-287,418.2h12l0,0c0.6,0,1,0.4,1,1v4.7l0,0c0,0.6-0.4,1-1,1h-12c-0.6,0-1-0.4-1-1
			v-4.7l0,0C-288,418.6-287.6,418.2-287,418.2L-287,418.2z M-287.6,419.3v1.1h1.3v3.6h1.3v-3.6h1.3v-1.1H-287.6z M-283.4,419.3
			l1.4,2.2l-1.6,2.4h1.6l0.9-1.5l0.9,1.5h1.6l-1.6-2.4l1.4-2.2h-1.5l-0.8,1.4l-0.8-1.4H-283.4z M-278.4,419.3v1.1h1.3v3.6h1.3v-3.6
			h1.3v-1.1H-278.4z"/>
	</g>
</g>
</svg>
