<?xml version="1.0" encoding="utf-8"?>
<!-- Generator: Adobe Illustrator 18.1.1, SVG Export Plug-In . SVG Version: 6.00 Build 0)  -->
<svg version="1.1" id="Capa_1" xmlns="http://www.w3.org/2000/svg" xmlns:xlink="http://www.w3.org/1999/xlink" x="0px" y="0px"
	 viewBox="-289 411.9 16 18" enable-background="new -289 411.9 16 18" xml:space="preserve">
<g>
	<path fill="#E74D4D" d="M-274.8,418.6h-0.4v-1.9c0,0,0,0,0,0c0-0.1,0-0.1-0.1-0.2l-3.1-3.5c0,0,0,0,0,0c0,0,0,0-0.1-0.1
		c0,0,0,0,0,0c0,0,0,0-0.1,0c0,0,0,0,0,0c0,0,0,0-0.1,0h-7.6c-0.3,0-0.6,0.3-0.6,0.6v5.1h-0.4c-0.5,0-0.9,0.4-0.9,0.9v4.7
		c0,0.5,0.4,0.9,0.9,0.9h0.4v3.2c0,0.3,0.3,0.6,0.6,0.6h10.4c0.3,0,0.6-0.3,0.6-0.6v-3.2h0.4c0.5,0,0.9-0.4,0.9-0.9v-4.7
		C-273.9,419-274.3,418.6-274.8,418.6z M-286.2,413.5h7.3v3.2c0,0.2,0.1,0.3,0.3,0.3h2.8v1.6h-10.4V413.5z M-279.1,423.2v0.9h-3
		v-4.8h1.1v3.9H-279.1z M-286.8,424.1l1.4-2.4l-1.3-2.4h1.2l0.4,0.9c0.1,0.3,0.2,0.5,0.4,0.8h0c0.1-0.3,0.2-0.5,0.3-0.8l0.4-0.9h1.2
		l-1.4,2.3l1.4,2.5h-1.3l-0.4-0.9c-0.2-0.3-0.3-0.6-0.4-0.9h0c-0.1,0.3-0.2,0.5-0.4,0.9l-0.4,0.9L-286.8,424.1L-286.8,424.1z
		 M-275.8,428.1h-10.4v-3h10.4L-275.8,428.1L-275.8,428.1z M-277.3,424.2c-0.5,0-1.1-0.1-1.4-0.3l0.2-0.9c0.3,0.1,0.7,0.3,1.2,0.3
		c0.5,0,0.8-0.2,0.8-0.5c0-0.3-0.2-0.5-0.8-0.7c-0.8-0.3-1.3-0.7-1.3-1.4c0-0.8,0.7-1.4,1.8-1.4c0.5,0,0.9,0.1,1.2,0.2l-0.2,0.9
		c-0.2-0.1-0.5-0.2-1-0.2c-0.5,0-0.7,0.2-0.7,0.5c0,0.3,0.3,0.4,0.9,0.7c0.8,0.3,1.2,0.8,1.2,1.4
		C-275.4,423.5-276,424.2-277.3,424.2z"/>
</g>
</svg>
