<?xml version="1.0" encoding="utf-8"?>
<!-- Generator: Adobe Illustrator 18.1.1, SVG Export Plug-In . SVG Version: 6.00 Build 0)  -->
<svg version="1.1" id="Capa_1" xmlns="http://www.w3.org/2000/svg" xmlns:xlink="http://www.w3.org/1999/xlink" x="0px" y="0px"
	 viewBox="-289 411.9 16 18" enable-background="new -289 411.9 16 18" xml:space="preserve">
<g>
	<path fill="#E74D4D" d="M-274.8,418.6h-0.4v-1.9c0,0,0,0,0,0c0-0.1,0-0.1-0.1-0.2l-3.1-3.5c0,0,0,0,0,0c0,0,0,0-0.1-0.1
		c0,0,0,0,0,0c0,0,0,0-0.1,0c0,0,0,0,0,0c0,0,0,0-0.1,0h-7.6c-0.3,0-0.6,0.3-0.6,0.6v5.1h-0.4c-0.5,0-0.9,0.4-0.9,0.9v4.7
		c0,0.5,0.4,0.9,0.9,0.9h0.4v3.2c0,0.3,0.3,0.6,0.6,0.6h10.4c0.3,0,0.6-0.3,0.6-0.6v-3.2h0.4c0.5,0,0.9-0.4,0.9-0.9v-4.7
		C-273.9,419-274.3,418.6-274.8,418.6z M-286.2,413.5h7.3v3.2c0,0.2,0.1,0.3,0.3,0.3h2.8v1.6h-10.4V413.5z M-279.8,422.1
		c-0.6-0.2-1-0.6-1-1.1c0-0.6,0.5-1.1,1.4-1.1c0.4,0,0.7,0.1,0.9,0.2l-0.2,0.7c-0.1-0.1-0.4-0.2-0.8-0.2s-0.5,0.2-0.5,0.4
		c0,0.2,0.2,0.3,0.7,0.5c0.7,0.2,1,0.6,1,1.1c0,0.6-0.5,1.2-1.5,1.2c-0.4,0-0.8-0.1-1.1-0.2l0.2-0.7c0.2,0.1,0.6,0.2,0.9,0.2
		c0.4,0,0.6-0.2,0.6-0.4C-279.2,422.4-279.4,422.2-279.8,422.1z M-281.2,422.9v0.7h-2.3v-3.7h0.8v3H-281.2z M-286.3,423.6h-1
		l1.1-1.9l-1-1.8h1l0.3,0.7c0.1,0.2,0.2,0.4,0.3,0.6h0c0.1-0.2,0.2-0.4,0.3-0.6l0.3-0.7h1l-1,1.8l1.1,1.9h-1l-0.3-0.7
		c-0.1-0.3-0.2-0.5-0.3-0.7h0c-0.1,0.2-0.2,0.4-0.3,0.7L-286.3,423.6z M-275.8,428.1h-10.4v-3h10.4L-275.8,428.1L-275.8,428.1z
		 M-275.8,423.6l-0.3-0.7c-0.1-0.3-0.2-0.5-0.3-0.7h0c-0.1,0.2-0.2,0.4-0.3,0.7l-0.3,0.7h-1l1.1-1.9l-1-1.8h1l0.3,0.7
		c0.1,0.2,0.2,0.4,0.3,0.6h0c0.1-0.2,0.2-0.4,0.3-0.6l0.3-0.7h1l-1,1.8l1.1,1.9L-275.8,423.6C-275.8,423.6-275.8,423.6-275.8,423.6z
		"/>
</g>
</svg>
