<?xml version="1.0" encoding="utf-8"?>
<!-- Generator: Adobe Illustrator 18.1.1, SVG Export Plug-In . SVG Version: 6.00 Build 0)  -->
<svg version="1.1" id="图层_1" xmlns="http://www.w3.org/2000/svg" xmlns:xlink="http://www.w3.org/1999/xlink" x="0px" y="0px"
	 viewBox="-197 320.9 200 200" enable-background="new -197 320.9 200 200" xml:space="preserve">
<path fill="#FFFFFF" d="M-34,464.7c0,0.6,0.5,1.1,1.1,1.1c0.6,0,1.1-0.5,1.1-1.1c0,0,0,0,0,0c0-0.6-0.5-1.1-1.1-1.1
	C-33.5,463.6-34,464.1-34,464.7z M-58.2,489.7c0,1.2,1,2.2,2.2,2.2s2.2-1,2.2-2.2c0-1.2-1-2.2-2.2-2.2S-58.2,488.5-58.2,489.7z
	 M-90.9,502.6c0,1.8,1.5,3.3,3.3,3.3c1.8,0,3.3-1.5,3.3-3.3s-1.5-3.3-3.3-3.3C-89.4,499.3-90.9,500.8-90.9,502.6z M-126.1,500.9
	c0,2.4,2,4.4,4.4,4.4c2.4,0,4.4-2,4.4-4.4c0-2.4-2-4.4-4.4-4.4C-124.1,496.5-126.1,498.5-126.1,500.9z M-157.3,484.9
	c-0.1,3,2.2,5.6,5.2,5.7c3,0.1,5.6-2.2,5.7-5.2c0-0.2,0-0.3,0-0.5c0-3-2.4-5.5-5.5-5.5C-154.8,479.4-157.3,481.8-157.3,484.9
	L-157.3,484.9z M-178.9,457.6c-0.1,3.6,2.7,6.7,6.3,6.8c3.6,0.1,6.7-2.7,6.8-6.3c0-0.2,0-0.3,0-0.5c-0.1-3.6-3.2-6.5-6.8-6.3
	C-176,451.5-178.8,454.2-178.9,457.6z M-187,424.2c0,4.2,3.4,7.7,7.6,7.7c4.2,0,7.7-3.4,7.7-7.6c0,0,0,0,0,0c0-4.2-3.4-7.6-7.7-7.6
	C-183.6,416.6-187,420-187,424.2z M-180.3,391c0,4.8,3.9,8.8,8.8,8.8s8.8-3.9,8.8-8.8c0-4.8-3.9-8.7-8.8-8.7S-180.3,386.2-180.3,391
	C-180.3,391-180.3,391-180.3,391z M-160.3,364.2c0,5.4,4.4,9.9,9.9,9.9s9.8-4.4,9.8-9.9s-4.4-9.9-9.8-9.9S-160.3,358.8-160.3,364.2
	L-160.3,364.2z M-130.9,348.9c0,6,4.9,10.9,10.9,10.9c6,0,10.9-4.9,10.9-10.9c0-6-4.9-10.9-10.9-10.9
	C-126,338-130.9,342.9-130.9,348.9L-130.9,348.9z M-97.9,347.9c0,6.6,5.4,12,12,12c6.6,0,12-5.4,12-12c0-6.6-5.4-12-12-12
	C-92.5,335.9-97.9,341.3-97.9,347.9C-97.9,347.9-97.9,347.9-97.9,347.9z M-67.7,361.5c0,7.2,5.9,13.1,13.1,13.1
	c7.2,0,13.1-5.9,13.1-13.1s-5.9-13.1-13.1-13.1C-61.8,348.4-67.7,354.3-67.7,361.5z M-46.2,387.1c-0.2,7.9,6,14.4,13.8,14.6
	c7.9,0.2,14.4-6,14.6-13.8c0-0.3,0-0.5,0-0.8c-0.2-7.9-6.7-14-14.6-13.8C-39.9,373.4-46,379.5-46.2,387.1z M-37.6,420.2
	c0,8.5,6.9,15.3,15.3,15.3c8.5,0,15.3-6.9,15.3-15.3c0-8.5-6.9-15.3-15.3-15.3C-30.8,404.9-37.6,411.7-37.6,420.2L-37.6,420.2z"/>
</svg>