<?xml version="1.0" encoding="utf-8"?>
<!-- Generator: Adobe Illustrator 18.1.1, SVG Export Plug-In . SVG Version: 6.00 Build 0)  -->
<svg version="1.1" id="图层_1" xmlns="http://www.w3.org/2000/svg" xmlns:xlink="http://www.w3.org/1999/xlink" x="0px" y="0px"
	 viewBox="0 0 269.3 233.8" enable-background="new 0 0 269.3 233.8" xml:space="preserve">
<path fill="none" stroke="#BFBEBE" stroke-width="2" stroke-miterlimit="10" d="M192.5,138.5H85.9c-6.6,0-12-5.4-12-12V56.8
	c0-6.6,5.4-12,12-12h106.6c6.6,0,12,5.4,12,12v69.7C204.5,133.1,199.1,138.5,192.5,138.5z"/>
<path fill="#FFFFFF" stroke="#BFBEBE" stroke-width="2" stroke-miterlimit="10" d="M171.4,151.4H64.9c-6.6,0-12-5.4-12-12V69.7
	c0-6.6,5.4-12,12-12h106.6c6.6,0,12,5.4,12,12v69.7C183.4,146,178,151.4,171.4,151.4z"/>
<polygon fill="#A9A8A8" points="125.6,137.1 132.8,129.9 158.2,155.4 150.9,162.7 "/>
<circle fill="none" cx="100.7" cy="99.7" r="21.7"/>
<circle fill="none" stroke="#BFBEBE" stroke-miterlimit="10" cx="100.7" cy="99.7" r="21.7"/>
<circle fill="none" stroke="#C0BFBE" stroke-miterlimit="10" cx="100.7" cy="99.7" r="28.3"/>
<path fill="none" stroke="#CBCBCB" stroke-miterlimit="10" d="M96.8,89.4c0,0-3.9,0.6-5.3,1.6s-2,1.7-2,1.7s-0.7,0.8-1.1,2
	c-0.4,1.2-0.4,2.8-0.4,2.8v3.5v2.8"/>
<line fill="none" stroke="#CBCBCB" stroke-miterlimit="10" x1="102.3" y1="91.6" x2="111.9" y2="91.6"/>
<line fill="none" stroke="#CBCBCB" stroke-miterlimit="10" x1="102.3" y1="97.5" x2="138.3" y2="97.5"/>
<line fill="none" stroke="#CBCBCB" stroke-miterlimit="10" x1="102" y1="103.5" x2="112.5" y2="103.5"/>
<line fill="none" x1="52.9" y1="96.6" x2="15.1" y2="96.6"/>
<line fill="none" stroke="#ADADAC" stroke-width="2" stroke-miterlimit="10" x1="21.2" y1="46.6" x2="40" y2="46.6"/>
<line fill="none" stroke="#ADADAC" stroke-width="2" stroke-miterlimit="10" x1="30.6" y1="37.3" x2="30.6" y2="56.5"/>
<line fill="none" stroke="#CDCDCD" stroke-miterlimit="10" x1="129" y1="9.3" x2="147.7" y2="9.3"/>
<line fill="none" stroke="#CDCDCD" stroke-miterlimit="10" x1="138.3" y1="0" x2="138.3" y2="19.1"/>
<line fill="none" stroke="#CDCDCD" stroke-miterlimit="10" x1="217.8" y1="18.9" x2="231.6" y2="18.9"/>
<line fill="none" stroke="#CDCDCD" stroke-miterlimit="10" x1="224.7" y1="12" x2="224.7" y2="26.2"/>
<line fill="#FFFFFF" stroke="#CCCCCC" stroke-width="2" stroke-miterlimit="10" x1="44.5" y1="169.6" x2="58.3" y2="169.6"/>
<line fill="#FFFFFF" stroke="#CCCCCC" stroke-width="2" stroke-miterlimit="10" x1="51.4" y1="162.7" x2="51.4" y2="176.9"/>
<circle fill="#ABAAAA" cx="7.8" cy="140.8" r="4.1"/>
<circle fill="none" stroke="#E3E3E3" stroke-miterlimit="10" cx="244.6" cy="80.7" r="6.3"/>
<circle fill="none" stroke="#E9E8E7" stroke-miterlimit="10" cx="79.3" cy="12.2" r="6.9"/>
<line fill="none" stroke="#BFBEBE" stroke-width="2" stroke-miterlimit="10" x1="171.2" y1="151.4" x2="220.4" y2="151.4"/>
<line fill="none" stroke="#BFBEBE" stroke-width="2" stroke-miterlimit="10" x1="247.7" y1="151.4" x2="268.5" y2="151.4"/>
<g>
	
		<text transform="matrix(1.0424 0 0 1 100.5555 221.9363)" fill="#959595" font-family="'MicrosoftYaHeiLight'" font-size="17.0662">暂无数据！</text>
</g>
<polygon fill="#A9A8A8" points="116.7,122.9 128.2,134.4 130.3,132.3 119.1,121.1 "/>
</svg>
